<svg id="Capa_1" data-name="Capa 1" xmlns="http://www.w3.org/2000/svg" viewBox="0 0 24.33 24.33"><defs><style>.cls-1{fill:#73a82f;}</style></defs><title>category</title><path class="cls-1" d="M10.3,0H.94A.94.94,0,0,0,0,.94V10.3a.94.94,0,0,0,.94.93H10.3a.93.93,0,0,0,.93-.93V.94A.94.94,0,0,0,10.3,0Z"/><path class="cls-1" d="M23.4,0H14a.94.94,0,0,0-.94.94V10.3a.94.94,0,0,0,.94.93H23.4a.93.93,0,0,0,.93-.93V.94A.93.93,0,0,0,23.4,0Zm-.94,9.36H15V1.87h7.48Z"/><path class="cls-1" d="M10.3,13.1H.94A.94.94,0,0,0,0,14V23.4a.94.94,0,0,0,.94.93H10.3a.93.93,0,0,0,.93-.93V14A.94.94,0,0,0,10.3,13.1ZM4.42,22.46a1.83,1.83,0,0,0,.26-.93,1.86,1.86,0,0,0-2.81-1.62V17.52a1.89,1.89,0,0,0,.94.26,1.87,1.87,0,0,0,1.87-1.87A1.89,1.89,0,0,0,4.42,15H6.81a1.89,1.89,0,0,0-.26.94,1.86,1.86,0,0,0,2.81,1.61v2.39a1.86,1.86,0,0,0-2.81,1.62,1.83,1.83,0,0,0,.26.93Z"/><path class="cls-1" d="M23.4,13.1H14a.94.94,0,0,0-.94.94V23.4a.94.94,0,0,0,.94.93H23.4a.93.93,0,0,0,.93-.93V14A.93.93,0,0,0,23.4,13.1Zm-8.42,6L19.11,15h2L15,21.14ZM15,15h1.48L15,16.46Zm7.48,1.32v2l-4.13,4.13h-2Zm0,6.16H21L22.46,21Z"/><circle class="cls-1" cx="5.62" cy="18.72" r="1.87"/></svg>