<?xml version="1.0" encoding="utf-8"?>
<!-- Generator: Adobe Illustrator 22.0.0, SVG Export Plug-In . SVG Version: 6.00 Build 0)  -->
<svg version="1.1" id="Layer_1" xmlns="http://www.w3.org/2000/svg" xmlns:xlink="http://www.w3.org/1999/xlink" x="0px" y="0px"
	 viewBox="0 0 10 10" style="enable-background:new 0 0 10 10;" xml:space="preserve">
<style type="text/css">
	.st0{fill:#73A82F;}
</style>
<g>
	<g>
		<path class="st0" d="M2.2,9.7h6.2c0.4,0,0.7-0.3,0.7-0.7V5.3c0-0.4-0.3-0.7-0.7-0.7H7.9V3c0-1.5-1.2-2.6-2.6-2.6S2.6,1.5,2.6,3
			v1.6H2.2c-0.4,0-0.7,0.3-0.7,0.7V9C1.5,9.4,1.8,9.7,2.2,9.7z M3.1,3c0-1.2,1-2.2,2.2-2.2s2.2,1,2.2,2.2v1.6H3.1V3z M1.9,5.3
			C1.9,5.1,2,5,2.2,5h6.2c0.1,0,0.2,0.1,0.2,0.2V9c0,0.1-0.1,0.2-0.2,0.2H2.2C2,9.2,1.9,9.1,1.9,9V5.3z"/>
		<path class="st0" d="M5.3,8.1c0.5,0,1-0.4,1-1s-0.4-1-1-1s-1,0.4-1,1C4.3,7.7,4.8,8.1,5.3,8.1z M5.3,6.6c0.3,0,0.5,0.2,0.5,0.5
			c0,0.3-0.2,0.5-0.5,0.5S4.8,7.4,4.8,7.1C4.8,6.9,5,6.6,5.3,6.6z"/>
	</g>
</g>
</svg>
