<svg id="Capa_1" data-name="Capa 1" xmlns="http://www.w3.org/2000/svg" viewBox="0 0 512 512"><defs><style>.cls-1{fill:#73a82f;}</style></defs><title>p&amp;amp;p</title><path class="cls-1" d="M59.73,34.13H51.2a8.54,8.54,0,0,0,0,17.07h8.53a8.54,8.54,0,1,0,0-17.07Z"/><path class="cls-1" d="M102.4,34.13H93.87a8.54,8.54,0,1,0,0,17.07h8.53a8.54,8.54,0,0,0,0-17.07Z"/><path class="cls-1" d="M145.07,34.13h-8.54a8.54,8.54,0,0,0,0,17.07h8.54a8.54,8.54,0,0,0,0-17.07Z"/><path class="cls-1" d="M409.6,34.13H179.2a8.54,8.54,0,0,0,0,17.07H409.6a8.54,8.54,0,0,0,0-17.07Z"/><path class="cls-1" d="M494.93,307.2H486.4V264.53a93.45,93.45,0,0,0-25.6-64.22V42.67A42.72,42.72,0,0,0,418.13,0H42.67A42.72,42.72,0,0,0,0,42.67V384a42.72,42.72,0,0,0,42.67,42.67h230.4v25.6A59.8,59.8,0,0,0,332.8,512H452.27A59.8,59.8,0,0,0,512,452.27v-128A17.07,17.07,0,0,0,494.93,307.2Zm-25.6-42.67V307.2H315.73V264.53a76.8,76.8,0,0,1,153.6,0ZM17.07,42.67a25.6,25.6,0,0,1,25.6-25.6H418.13a25.6,25.6,0,0,1,25.6,25.6v25.6H17.07Zm256,281.6V409.6H42.67A25.6,25.6,0,0,1,17.07,384V85.33H443.73V186a93.74,93.74,0,0,0-145.06,78.57V307.2h-8.54A17.06,17.06,0,0,0,273.07,324.27Zm221.86,17.06h-25.6a8.54,8.54,0,0,0,0,17.07h25.6v17.07h-25.6a8.53,8.53,0,1,0,0,17.06h25.6V409.6h-25.6a8.54,8.54,0,0,0,0,17.07h25.6v17.06h-25.6a8.54,8.54,0,0,0,0,17.07h24.75a42.74,42.74,0,0,1-41.81,34.13H332.8A42.73,42.73,0,0,1,291,460.8h24.74a8.54,8.54,0,1,0,0-17.07h-25.6V426.67h25.6a8.54,8.54,0,1,0,0-17.07h-25.6V392.53h25.6a8.53,8.53,0,1,0,0-17.06h-25.6V358.4h25.6a8.54,8.54,0,1,0,0-17.07h-25.6V324.27h204.8v17.06Z"/><path class="cls-1" d="M384,416.56V435.2a8.54,8.54,0,0,0,17.07,0V416.56a25.59,25.59,0,1,0-17.07,0ZM392.53,384a8.54,8.54,0,1,1-8.53,8.53A8.53,8.53,0,0,1,392.53,384Z"/><path class="cls-1" d="M145.07,170.67a8.53,8.53,0,0,0-8.54,8.53v25.6H68.27V136.53H102.4a8.53,8.53,0,0,0,0-17.06H68.27A17.06,17.06,0,0,0,51.2,136.53V204.8a17.07,17.07,0,0,0,17.07,17.07h68.26A17.07,17.07,0,0,0,153.6,204.8V179.2A8.53,8.53,0,0,0,145.07,170.67Z"/><path class="cls-1" d="M91.37,156.1A8.54,8.54,0,0,0,79.3,168.17l17.07,17.06a8.53,8.53,0,0,0,6,2.5h.38a8.48,8.48,0,0,0,6.17-3l42.67-51.2a8.54,8.54,0,0,0-13.11-10.94l-36.69,44Z"/><path class="cls-1" d="M145.07,315.73a8.54,8.54,0,0,0-8.54,8.54v25.6H68.27V281.6H102.4a8.54,8.54,0,0,0,0-17.07H68.27A17.07,17.07,0,0,0,51.2,281.6v68.27a17.06,17.06,0,0,0,17.07,17.06h68.26a17.06,17.06,0,0,0,17.07-17.06v-25.6A8.53,8.53,0,0,0,145.07,315.73Z"/><path class="cls-1" d="M91.37,301.17A8.53,8.53,0,0,0,79.3,313.23L96.37,330.3a8.53,8.53,0,0,0,6,2.5h.38a8.53,8.53,0,0,0,6.17-3.06l42.67-51.2a8.53,8.53,0,1,0-13.11-10.93l-36.69,44Z"/><path class="cls-1" d="M187.73,145.07H256A8.54,8.54,0,0,0,256,128H187.73a8.54,8.54,0,0,0,0,17.07Z"/><path class="cls-1" d="M307.2,179.2a8.53,8.53,0,0,0-8.53-8.53H187.73a8.53,8.53,0,1,0,0,17.06H298.67A8.53,8.53,0,0,0,307.2,179.2Z"/><path class="cls-1" d="M256,273.07H187.73a8.53,8.53,0,1,0,0,17.06H256a8.53,8.53,0,0,0,0-17.06Z"/><path class="cls-1" d="M247.47,315.73H187.73a8.54,8.54,0,0,0,0,17.07h59.74a8.54,8.54,0,0,0,0-17.07Z"/></svg>