<svg id="Capa_1" data-name="Capa 1" xmlns="http://www.w3.org/2000/svg" viewBox="0 0 280.37 444.82"><defs><style>.cls-1{fill:#73a82f;}</style></defs><title>arrow-right</title><path class="cls-1" d="M352,196.71,165.88,10.85Q155.61,0,140.19,0t-25.7,10.85L92.79,32.26A35,35,0,0,0,82.23,58a36.57,36.57,0,0,0,10.56,26L231.55,222.41,92.79,361.17a34.93,34.93,0,0,0-10.57,25.69,36.53,36.53,0,0,0,10.57,26l21.7,21.41a36.52,36.52,0,0,0,51.39,0L352,248.39a36.57,36.57,0,0,0,10.57-26A35,35,0,0,0,352,196.71Z" transform="translate(-82.22)"/></svg>