<?xml version="1.0" encoding="utf-8"?>
<!-- Generator: Adobe Illustrator 22.0.0, SVG Export Plug-In . SVG Version: 6.00 Build 0)  -->
<svg version="1.1" id="Layer_1" xmlns="http://www.w3.org/2000/svg" xmlns:xlink="http://www.w3.org/1999/xlink" x="0px" y="0px"
	 viewBox="0 0 10 10" style="enable-background:new 0 0 10 10;" xml:space="preserve">
<style type="text/css">
	.st0{fill:#73A82F;}
</style>
<g id="XMLID_747_">
	<g>
		<g>
			<path class="st0" d="M5.1,0.6C2.7,0.6,0.8,2.6,0.8,5s1.9,4.4,4.4,4.4S9.5,7.4,9.5,5S7.5,0.6,5.1,0.6z M7.8,7.7
				C7.1,8.4,6.1,8.8,5.1,8.8c-1,0-2-0.4-2.7-1.1C1.7,7,1.3,6,1.3,5s0.4-2,1.1-2.7c0.7-0.7,1.7-1.1,2.7-1.1c1,0,2,0.4,2.7,1.1
				C8.5,3,8.9,4,8.9,5S8.5,7,7.8,7.7z"/>
			<path class="st0" d="M7,4.7H6C5.9,4.4,5.7,4.2,5.4,4.1V2.1c0-0.2-0.1-0.3-0.3-0.3C5,1.8,4.8,1.9,4.8,2.1v2.1
				C4.4,4.2,4.2,4.6,4.2,5c0,0.5,0.4,1,1,1c0.5,0,0.8-0.3,0.9-0.7h1c0.2,0,0.3-0.1,0.3-0.3S7.2,4.7,7,4.7z M5.1,5.5
				C4.9,5.5,4.7,5.3,4.7,5s0.2-0.4,0.4-0.4c0.2,0,0.4,0.2,0.4,0.4C5.5,5.3,5.3,5.5,5.1,5.5z"/>
		</g>
	</g>
</g>
</svg>
