<?xml version="1.0" encoding="utf-8"?>
<!-- Generator: Adobe Illustrator 22.0.0, SVG Export Plug-In . SVG Version: 6.00 Build 0)  -->
<svg version="1.1" id="Layer_1" xmlns="http://www.w3.org/2000/svg" xmlns:xlink="http://www.w3.org/1999/xlink" x="0px" y="0px"
	 viewBox="0 0 10 10" style="enable-background:new 0 0 10 10;" xml:space="preserve">
<style type="text/css">
	.st0{fill:#73A82F;}
</style>
<g>
	<g>
		<path class="st0" d="M2.1,1.8c-0.1-0.1-0.2-0.1-0.3,0c-0.1,0.1-0.1,0.2,0,0.3l0.5,0.5c0,0,0.1,0.1,0.2,0.1l0,0
			c0.1,0,0.1,0,0.2-0.1l1.6-1.5c0.1-0.1,0.1-0.2,0-0.3C4.1,0.7,4,0.7,3.9,0.8L3.4,1.3C3.2,1,2.8,0.9,2.5,0.9c-0.7,0-1.3,0.6-1.3,1.3
			s0.6,1.3,1.3,1.3c0.6,0,1.1-0.4,1.3-1c0-0.1,0-0.2-0.1-0.3c-0.1,0-0.2,0-0.3,0.1C3.2,2.8,2.9,3.1,2.5,3.1C2,3.1,1.6,2.7,1.6,2.2
			S2,1.3,2.5,1.3c0.2,0,0.5,0.1,0.7,0.3L2.5,2.2L2.1,1.8z"/>
		<path class="st0" d="M2.5,3.7c-0.7,0-1.3,0.6-1.3,1.3s0.6,1.3,1.3,1.3s1.3-0.6,1.3-1.3S3.2,3.7,2.5,3.7z M2.5,6
			C2,6,1.6,5.6,1.6,5.1S2,4.1,2.5,4.1s0.9,0.4,0.9,0.9S3,6,2.5,6z"/>
		<path class="st0" d="M3.8,7.9c0-0.7-0.6-1.3-1.3-1.3S1.1,7.2,1.1,7.9c0,0.7,0.6,1.3,1.3,1.3S3.8,8.7,3.8,7.9z M2.5,8.8
			C2,8.8,1.6,8.4,1.6,7.9S2,7,2.5,7s0.9,0.4,0.9,0.9S3,8.8,2.5,8.8z"/>
		<path class="st0" d="M8.7,4.8H4.5c-0.1,0-0.2,0.1-0.2,0.2s0.1,0.2,0.2,0.2h4.2c0.1,0,0.2-0.1,0.2-0.2S8.8,4.8,8.7,4.8z"/>
		<path class="st0" d="M8.7,2H4.5C4.4,2,4.3,2.1,4.3,2.2c0,0.1,0.1,0.2,0.2,0.2h4.2c0.1,0,0.2-0.1,0.2-0.2C8.9,2.1,8.8,2,8.7,2z"/>
		<path class="st0" d="M8.7,7.7H4.5c-0.1,0-0.2,0.1-0.2,0.2s0.1,0.2,0.2,0.2h4.2c0.1,0,0.2-0.1,0.2-0.2C8.9,7.8,8.8,7.7,8.7,7.7z"/>
	</g>
</g>
</svg>
