<?xml version="1.0" encoding="utf-8"?>
<!-- Generator: Adobe Illustrator 22.0.0, SVG Export Plug-In . SVG Version: 6.00 Build 0)  -->
<svg version="1.1" id="Layer_1" xmlns="http://www.w3.org/2000/svg" xmlns:xlink="http://www.w3.org/1999/xlink" x="0px" y="0px"
	 viewBox="0 0 10 10" style="enable-background:new 0 0 10 10;" xml:space="preserve">
<style type="text/css">
	.st0{fill:#73A82F;}
</style>
<g>
	<g>
		<path class="st0" d="M8.6,1.4H1.7c-0.6,0-1.1,0.5-1.1,1.1v4.7c0,0.6,0.5,1.1,1.1,1.1h6.9c0.6,0,1.1-0.5,1.1-1.1V2.5
			C9.7,1.9,9.2,1.4,8.6,1.4z M9.2,7.2c0,0.3-0.3,0.6-0.6,0.6H1.7c-0.3,0-0.6-0.3-0.6-0.6V2.5c0-0.3,0.3-0.6,0.6-0.6h6.9
			c0.3,0,0.6,0.3,0.6,0.6L9.2,7.2L9.2,7.2z"/>
		<path class="st0" d="M6.4,4.8l2.2-2c0.1-0.1,0.1-0.3,0-0.4c-0.1-0.1-0.3-0.1-0.4,0L5.2,5.2L4.6,4.7c0,0,0,0,0,0c0,0,0,0,0,0
			L2.1,2.4C2,2.3,1.8,2.4,1.7,2.5c-0.1,0.1-0.1,0.3,0,0.4l2.3,2L1.8,6.9C1.7,7,1.6,7.2,1.7,7.3c0.1,0.1,0.1,0.1,0.2,0.1
			c0.1,0,0.1,0,0.2-0.1l2.3-2.1L5,5.7c0,0,0.1,0.1,0.2,0.1s0.1,0,0.2-0.1L6,5.2l2.3,2.2c0,0,0.1,0.1,0.2,0.1c0.1,0,0.1,0,0.2-0.1
			c0.1-0.1,0.1-0.3,0-0.4L6.4,4.8z"/>
	</g>
</g>
</svg>
