<?xml version="1.0" encoding="utf-8"?>
<!-- Generator: Adobe Illustrator 22.0.0, SVG Export Plug-In . SVG Version: 6.00 Build 0)  -->
<svg version="1.1" id="Layer_1" xmlns="http://www.w3.org/2000/svg" xmlns:xlink="http://www.w3.org/1999/xlink" x="0px" y="0px"
	 viewBox="0 0 10 10" style="enable-background:new 0 0 10 10;" xml:space="preserve">
<style type="text/css">
	.st0{fill:#73A82F;}
</style>
<g>
	<path class="st0" d="M9.6,4.6l-4.4-4c0,0,0,0,0,0c-0.1-0.1-0.3-0.1-0.4,0l-4.4,4c-0.1,0.1-0.1,0.3,0,0.4C0.4,5,0.5,5,0.5,5
		c0.1,0,0.1,0,0.2-0.1l0.8-0.7v0.1v2.1v2.4c0,0.4,0.3,0.7,0.7,0.7c0,0,0,0,0,0c0,0,0,0,0,0h1.4c0.3,0,0.6-0.3,0.6-0.6V6.5
		c0-0.1,0-0.1,0.1-0.1h1.4c0.1,0,0.1,0,0.1,0.1v2.4c0,0.3,0.3,0.6,0.6,0.6h1.4c0.4,0,0.7-0.4,0.7-0.8V6.5V5.9V4.2L9.3,5
		C9.3,5,9.4,5,9.5,5c0.1,0,0.1,0,0.2-0.1C9.8,4.8,9.7,4.7,9.6,4.6z M8,5.9v0.7v2.2C8,8.9,7.9,9,7.8,9H6.4c-0.1,0-0.1,0-0.1-0.1V6.5
		c0-0.3-0.3-0.6-0.6-0.6H4.3c-0.3,0-0.6,0.3-0.6,0.6v2.4c0,0.1,0,0.1-0.1,0.1H2.2c0,0,0,0,0,0c0,0,0,0,0,0C2.1,9,2,8.9,2,8.8V6.4
		V4.3V3.7L5,1.1l3,2.7L8,5.9L8,5.9z"/>
</g>
</svg>
