<?xml version="1.0" encoding="utf-8"?>
<!-- Generator: Adobe Illustrator 22.0.0, SVG Export Plug-In . SVG Version: 6.00 Build 0)  -->
<svg version="1.1" id="Layer_1" xmlns="http://www.w3.org/2000/svg" xmlns:xlink="http://www.w3.org/1999/xlink" x="0px" y="0px"
	 viewBox="0 0 10 10" style="enable-background:new 0 0 10 10;" xml:space="preserve">
<style type="text/css">
	.st0{fill:#73A82F;}
</style>
<g>
	<g id="calendar_1_">
		<path class="st0" d="M9,1.4H7.8V0.9c0-0.2-0.1-0.3-0.3-0.3S7.2,0.7,7.2,0.9v0.6H5.6V0.9c0-0.2-0.1-0.3-0.3-0.3S5,0.7,5,0.9v0.6
			H3.3V0.9c0-0.2-0.1-0.3-0.3-0.3c-0.2,0-0.3,0.1-0.3,0.3v0.6H1.6c-0.4,0-0.7,0.3-0.7,0.7v6.6c0,0.4,0.3,0.7,0.7,0.7H9
			c0.4,0,0.7-0.3,0.7-0.7V2.2C9.7,1.8,9.4,1.4,9,1.4z M9.2,8.8c0,0.1-0.1,0.2-0.2,0.2H1.6c-0.1,0-0.2-0.1-0.2-0.2V2.2
			C1.4,2.1,1.5,2,1.6,2h1.2v0.6c0,0.2,0.1,0.3,0.3,0.3c0.2,0,0.3-0.1,0.3-0.3V2H5v0.6c0,0.2,0.1,0.3,0.3,0.3s0.3-0.1,0.3-0.3V2h1.7
			v0.6c0,0.2,0.1,0.3,0.3,0.3s0.3-0.1,0.3-0.3V2H9c0.1,0,0.2,0.1,0.2,0.2V8.8z"/>
		<rect x="2.8" y="3.9" class="st0" width="1.1" height="0.8"/>
		<rect x="2.8" y="5.3" class="st0" width="1.1" height="0.8"/>
		<rect x="2.8" y="6.7" class="st0" width="1.1" height="0.8"/>
		<rect x="4.7" y="6.7" class="st0" width="1.1" height="0.8"/>
		<rect x="4.7" y="5.3" class="st0" width="1.1" height="0.8"/>
		<rect x="4.7" y="3.9" class="st0" width="1.1" height="0.8"/>
		<rect x="6.7" y="6.7" class="st0" width="1.1" height="0.8"/>
		<rect x="6.7" y="5.3" class="st0" width="1.1" height="0.8"/>
		<rect x="6.7" y="3.9" class="st0" width="1.1" height="0.8"/>
	</g>
</g>
</svg>
