<?xml version="1.0" encoding="utf-8"?>
<!-- Generator: Adobe Illustrator 22.0.0, SVG Export Plug-In . SVG Version: 6.00 Build 0)  -->
<svg version="1.1" id="Layer_1" xmlns="http://www.w3.org/2000/svg" xmlns:xlink="http://www.w3.org/1999/xlink" x="0px" y="0px"
	 viewBox="0 0 10 10" style="enable-background:new 0 0 10 10;" xml:space="preserve">
<style type="text/css">
	.st0{fill:#73A82F;}
</style>
<g>
	<g>
		<path class="st0" d="M5.1,5.2C5.1,5.2,5.2,5.2,5.1,5.2C5.2,5.2,5.2,5.2,5.1,5.2C5.2,5.2,5.2,5.2,5.1,5.2c0.6,0,1-0.2,1.3-0.6
			C7.2,3.9,7,2.5,7,2.4c0-1-0.5-1.4-0.9-1.6c-0.3-0.2-0.6-0.2-1-0.3h0c0,0,0,0,0,0h0c-0.2,0-0.6,0-1,0.2C3.8,0.9,3.3,1.4,3.3,2.4
			c0,0.1-0.1,1.5,0.6,2.3C4.2,5,4.6,5.2,5.1,5.2z M3.8,2.4C3.8,2.4,3.8,2.4,3.8,2.4C3.8,1.1,4.8,1,5.2,1h0c0,0,0,0,0,0
			c0.5,0,1.3,0.2,1.4,1.4c0,0,0,0,0,0c0,0,0.1,1.2-0.4,1.9C5.9,4.6,5.6,4.7,5.2,4.7c0,0,0,0,0,0l0,0c0,0,0,0,0,0
			c-0.4,0-0.7-0.1-0.9-0.4C3.7,3.7,3.8,2.4,3.8,2.4z"/>
		<path class="st0" d="M8.9,7.4C8.9,7.4,8.9,7.4,8.9,7.4C8.9,7.4,8.9,7.4,8.9,7.4c0-0.4,0-1.2-0.8-1.5c0,0,0,0,0,0
			C7.2,5.7,6.5,5.2,6.5,5.2C6.4,5.1,6.3,5.2,6.2,5.3C6.1,5.4,6.1,5.5,6.3,5.6c0,0,0.8,0.5,1.7,0.8c0.4,0.2,0.5,0.6,0.5,1
			c0,0,0,0,0,0c0,0.2,0,0.4,0,0.6C8.1,8.2,6.9,8.7,5.2,8.7C3.4,8.7,2.3,8.2,2,8c0-0.1,0-0.4,0-0.6c0,0,0,0,0,0C2,7,2,6.5,2.4,6.4
			C3.3,6.1,4,5.6,4.1,5.6c0.1-0.1,0.1-0.2,0.1-0.3C4.1,5.2,3.9,5.1,3.8,5.2c0,0-0.7,0.5-1.5,0.7c0,0,0,0,0,0C1.5,6.2,1.5,7,1.5,7.4
			c0,0,0,0,0,0c0,0,0,0,0,0c0,0.1,0,0.6,0.1,0.8c0,0,0.1,0.1,0.1,0.1c0.1,0,1.4,0.9,3.5,0.9s3.5-0.8,3.5-0.9c0,0,0.1-0.1,0.1-0.1
			C8.9,8,8.9,7.5,8.9,7.4z"/>
	</g>
</g>
</svg>
