<svg id="Capa_1" data-name="Capa 1" xmlns="http://www.w3.org/2000/svg" viewBox="0 0 487.22 465.2"><defs><style>.cls-1{fill:#73a82f;}</style></defs><title>star</title><path class="cls-1" d="M486.55,186.81a13.59,13.59,0,0,0-10.9-9.2l-152-21.6-68.4-137.5a13.55,13.55,0,0,0-12.1-7.5h0a13.47,13.47,0,0,0-12.1,7.6l-67.5,137.9-152,22.6a13.59,13.59,0,0,0-10.9,9.2,13.35,13.35,0,0,0,3.5,13.8L114.45,309,89,460.41a13.57,13.57,0,0,0,13.3,15.8,12.83,12.83,0,0,0,6.3-1.6l135.7-71.9,136.1,71.1a13.81,13.81,0,0,0,6.2,1.5h0a13.57,13.57,0,0,0,13.5-13.5,10.55,10.55,0,0,0-.4-3.1l-26.3-150.5L483,200.71A13.22,13.22,0,0,0,486.55,186.81Zm-137,107.1a13.35,13.35,0,0,0-3.8,12l22.9,131.3-118.2-61.7a13.68,13.68,0,0,0-12.6,0l-117.8,62.4,22.1-131.5a13.49,13.49,0,0,0-3.9-11.9l-95.6-92.8,131.9-19.6a13.4,13.4,0,0,0,10.1-7.4L243.25,55l59.4,119.4a13.74,13.74,0,0,0,10.2,7.4l132,18.8Z" transform="translate(0 -11.01)"/></svg>