<svg id="Layer_1" data-name="Layer 1" xmlns="http://www.w3.org/2000/svg" viewBox="0 0 512 512"><defs><style>.cls-1{fill:#73a82f;}</style></defs><title>add-reminder</title><path class="cls-1" d="M68.59,318.84C82.07,295.46,96,271.28,96,234V204c0-63.07,51.09-115.07,113.91-116h3.79c63,.92,114.3,52.92,114.3,116v30c0,21.78,4.36,40.51,14.14,60.71a20,20,0,1,0,36-17.42C371,262.59,368,249.65,368,234V204c0-79.16-60.07-145.35-137-154.82V20a20,20,0,0,0-40,0V49.36A156.22,156.22,0,0,0,56,204v30c0,26.58-9.74,43.48-22.06,64.87C21.76,320,8,343.94,1,380.91A60,60,0,0,0,60,452h92a60,60,0,0,0,120,0c0-.43,0-.84-.07-1.26A20,20,0,0,0,265,412H60a20,20,0,0,1-19.66-23.72C46,358,57.5,338.09,68.59,318.84ZM232,452a20,20,0,0,1-40,0Zm280-35a20,20,0,0,1-20,20H437v55a20,20,0,0,1-40,0V437H342a20,20,0,0,1,0-40h55V342a20,20,0,0,1,40,0v55h55A20,20,0,0,1,512,417Z" transform="translate(0)"/></svg>