<svg id="Layer_1" data-name="Layer 1" xmlns="http://www.w3.org/2000/svg" viewBox="0 0 438.69 247.32"><defs><style>.cls-1{fill:#333;}.cls-2{fill:#73a82f;}.cls-3{fill:#196384;}.cls-4{fill:#60911f;}</style></defs><title>logo9</title><path class="cls-1" d="M49.7,241.93a28.26,28.26,0,0,1-11.13-11,35.66,35.66,0,0,1,0-33,28.36,28.36,0,0,1,11.13-11A32.57,32.57,0,0,1,65.59,183a32.54,32.54,0,0,1,15.89,3.88,28.36,28.36,0,0,1,11.13,11,35.66,35.66,0,0,1,0,33,28.26,28.26,0,0,1-11.13,11,32.44,32.44,0,0,1-15.89,3.89A32.46,32.46,0,0,1,49.7,241.93Zm28.51-4.76a21.91,21.91,0,0,0,8.73-8.86,32,32,0,0,0-.09-28,21.54,21.54,0,0,0-8.91-8.81,26.41,26.41,0,0,0-12.52-3,25.57,25.57,0,0,0-12.53,3,21.58,21.58,0,0,0-8.69,8.91,29,29,0,0,0-3.14,13.88,28.46,28.46,0,0,0,3.19,13.92A21.79,21.79,0,0,0,53,237.17a25.64,25.64,0,0,0,12.61,3.06A25.71,25.71,0,0,0,78.21,237.17Z" transform="translate(-34.51 -19.53)"/><path class="cls-1" d="M108.41,244.9a3.71,3.71,0,0,1-.83-2.57V204.79a3.81,3.81,0,0,1,.79-2.58,2.94,2.94,0,0,1,2.36-.92,3,3,0,0,1,2.31.92,3.72,3.72,0,0,1,.83,2.58V210q5.94-7.85,16.41-7.85h2.18a4.14,4.14,0,0,1,2.62.74,2.44,2.44,0,0,1,1,2.05,2.34,2.34,0,0,1-1,2,4.4,4.4,0,0,1-2.62.7H130q-7.43,0-11.74,4.23T114,223.38v19a3.76,3.76,0,0,1-.83,2.53,3,3,0,0,1-2.4,1A3,3,0,0,1,108.41,244.9Z" transform="translate(-34.51 -19.53)"/><path class="cls-1" d="M151.84,265a19.84,19.84,0,0,1-8.2-5.32,2.37,2.37,0,0,1-.7-1.75,2.73,2.73,0,0,1,1.4-2.27,2.89,2.89,0,0,1,1.66-.61,3.68,3.68,0,0,1,2.61,1.4,15.11,15.11,0,0,0,5.59,3.66,22.37,22.37,0,0,0,8.38,1.4q8.56,0,13.1-4.1t4.54-11.87v-8.21a22.59,22.59,0,0,1-7.77,6.42,24.08,24.08,0,0,1-11.18,2.48q-11.09,0-17.11-5.93t-6-15.89a25.71,25.71,0,0,1,2.66-11.92,19.61,19.61,0,0,1,8-8.21,26.32,26.32,0,0,1,13.09-3,22.54,22.54,0,0,1,10.39,2.36,23,23,0,0,1,7.95,6.72v-5.76a3.29,3.29,0,0,1,.91-2.36,3.09,3.09,0,0,1,2.32-1,3,3,0,0,1,2.27.92,3.34,3.34,0,0,1,.87,2.4v40.95a21.42,21.42,0,0,1-2.92,11.35,19.27,19.27,0,0,1-8.25,7.37,27.73,27.73,0,0,1-12.23,2.58A33,33,0,0,1,151.84,265Zm18.91-26.27a15.57,15.57,0,0,0,9.38-14.93,18,18,0,0,0-2.09-8.73,15.16,15.16,0,0,0-6.12-6.07,19.55,19.55,0,0,0-9.6-2.23q-8.48,0-13.09,4.59t-4.63,13.05q0,7.5,4.41,11.83t12.87,4.32A21.74,21.74,0,0,0,170.75,238.75Z" transform="translate(-34.51 -19.53)"/><path class="cls-1" d="M201,242.06a13.34,13.34,0,0,1,.26-20.77q5.11-3.85,13.93-3.85a27.47,27.47,0,0,1,9.12,1.4,15,15,0,0,1,6.16,3.75V217a9.18,9.18,0,0,0-3.28-7.6q-3.27-2.61-9.56-2.62a25.28,25.28,0,0,0-14.05,3.84,5.14,5.14,0,0,1-2.45.88,2.76,2.76,0,0,1-1.74-.7,2.44,2.44,0,0,1-1-2,2.64,2.64,0,0,1,1.13-2.18,24.11,24.11,0,0,1,8-3.89,34.59,34.59,0,0,1,9.91-1.44q9.26,0,14.36,4.19t5.11,11.79v25.14q0,3.41-3.15,3.41a3,3,0,0,1-2.27-.92,3.34,3.34,0,0,1-.87-2.4v-3.14q-5.42,6.46-16.24,6.46Q205.8,245.82,201,242.06Zm25.28-4.14q4.28-2.58,4.27-6.68a6.93,6.93,0,0,0-4-6.33q-4-2.24-11.22-2.23-6.1,0-9.43,2.32a7.62,7.62,0,0,0-3.31,6.67,7.49,7.49,0,0,0,3.23,6.55c2.15,1.52,5.26,2.27,9.34,2.27Q222,240.49,226.23,237.92Z" transform="translate(-34.51 -19.53)"/><path class="cls-1" d="M247.74,225.69a2.38,2.38,0,0,1-.91-2q0-2.79,3.49-2.79h25.84q3.49,0,3.49,2.79a2.38,2.38,0,0,1-.91,2,4,4,0,0,1-2.58.75H250.32A4,4,0,0,1,247.74,225.69Z" transform="translate(-34.51 -19.53)"/><path class="cls-1" d="M290,244.42a4.89,4.89,0,0,1-1.57-3.84V207.67q0-11.61,7.25-18.16T315.71,183q12.82,0,20.08,6.55T343,207.67v32.91a4.86,4.86,0,0,1-1.57,3.84,7,7,0,0,1-8.42,0,4.84,4.84,0,0,1-1.62-3.8V207.4q0-7.41-4-11.35t-11.7-3.92q-7.68,0-11.7,3.92t-4,11.35v33.18a4.84,4.84,0,0,1-1.61,3.8,7,7,0,0,1-8.43,0Z" transform="translate(-34.51 -19.53)"/><path class="cls-1" d="M353.47,194.09a6.52,6.52,0,0,1,0-9.34,7.42,7.42,0,0,1,5.19-1.79,7.75,7.75,0,0,1,5.28,1.79,6.32,6.32,0,0,1,0,9.34,7.75,7.75,0,0,1-5.28,1.79A7.42,7.42,0,0,1,353.47,194.09Zm1.09,50.33a5,5,0,0,1-1.49-3.84V206.53a5,5,0,0,1,1.49-3.84,5.88,5.88,0,0,1,4.19-1.4,6.08,6.08,0,0,1,4.19,1.4,4.86,4.86,0,0,1,1.57,3.84v34.05a4.86,4.86,0,0,1-1.57,3.84,6.08,6.08,0,0,1-4.19,1.4A5.88,5.88,0,0,1,354.56,244.42Z" transform="translate(-34.51 -19.53)"/><path class="cls-1" d="M379.61,239.92q-6.45-5.88-6.46-16.45t6.46-16.37q6.47-5.81,18.16-5.81A29.55,29.55,0,0,1,409,203.34a18.54,18.54,0,0,1,7.9,5.81,4.39,4.39,0,0,1,1.05,2.79,5,5,0,0,1-2.36,4,4.27,4.27,0,0,1-2.62.79,6.33,6.33,0,0,1-2.53-.57,6.65,6.65,0,0,1-2.27-1.62,11.4,11.4,0,0,0-4.49-3.1,16,16,0,0,0-5.9-1.09q-6.19,0-9.64,3.45t-3.45,9.65q0,6.38,3.45,9.82t9.64,3.45a16.52,16.52,0,0,0,11.79-4.63q2.44-2.45,4.8-2.44a4.53,4.53,0,0,1,2.88,1,5,5,0,0,1,2.1,4,4.33,4.33,0,0,1-1.23,2.88,24.86,24.86,0,0,1-8.94,6.24,30.66,30.66,0,0,1-11.4,2Q386.07,245.82,379.61,239.92Z" transform="translate(-34.51 -19.53)"/><path class="cls-1" d="M437.23,243.11a20,20,0,0,1-8.6-7.64,21.82,21.82,0,0,1-3-11.57q0-10.72,6.24-16.67t17.6-5.94a32.51,32.51,0,0,1,12.35,2.19,19.64,19.64,0,0,1,8.38,6.06,14.07,14.07,0,0,1,3,8.86,8,8,0,0,1-2.66,6.46c-1.78,1.52-4.29,2.27-7.55,2.27H436.71a8.52,8.52,0,0,0,3.45,7.38q3.45,2.49,10.17,2.49a22.18,22.18,0,0,0,12.05-3.14,9.2,9.2,0,0,1,4.36-1.75,4.1,4.1,0,0,1,2.88,1.4,4.5,4.5,0,0,1,1.49,3.23,3.88,3.88,0,0,1-1.75,3.32,26.9,26.9,0,0,1-8.55,4.27,36,36,0,0,1-10.48,1.49A29.67,29.67,0,0,1,437.23,243.11Zm22.27-24a3.11,3.11,0,0,0,2.09-.56,2.47,2.47,0,0,0,.61-1.88q0-3.06-3.45-4.8a20.67,20.67,0,0,0-9.29-1.75c-3.9,0-7,.82-9.21,2.44a7.7,7.7,0,0,0-3.37,6.55Z" transform="translate(-34.51 -19.53)"/><circle class="cls-2" cx="324.6" cy="169.89" r="7.76"/><rect class="cls-3" x="141.16" y="37.72" width="12.45" height="91.9" rx="6.23" ry="6.23"/><rect class="cls-2" x="157.06" width="10.29" height="23.85" rx="5.14" ry="5.14"/><path class="cls-3" d="M306.89,33.19v5.22A9,9,0,0,1,298,47.34h0A9,9,0,0,1,289,38.41V33.19a.83.83,0,0,0-.83-.83H206.47a.83.83,0,0,0-.83.83v5.22a9,9,0,0,1-8.93,8.93h0a9,9,0,0,1-8.93-8.93V33.19a.83.83,0,0,0-.83-.83H176.5a.83.83,0,0,0-.83.83V53.58a.83.83,0,0,0,.83.83H317.94a.83.83,0,0,0,.83-.83V33.19a.83.83,0,0,0-.83-.83H307.72A.83.83,0,0,0,306.89,33.19Z" transform="translate(-34.51 -19.53)"/><rect class="cls-2" x="258.3" width="10.29" height="23.85" rx="5.14" ry="5.14"/><path class="cls-3" d="M318.77,103.94V63.15a5.9,5.9,0,0,0-5.9-5.9h-.65a5.9,5.9,0,0,0-5.9,5.9v41.44a5.86,5.86,0,0,0,1.61,4h0a5.89,5.89,0,0,0,8.47.11l.65-.65A5.91,5.91,0,0,0,318.77,103.94Z" transform="translate(-34.51 -19.53)"/><path class="cls-3" d="M305.44,148.71l0,0L295,138.48a6.24,6.24,0,0,0-4.36-1.79H198.61a6.23,6.23,0,0,0-6.22,6.23h0a6.23,6.23,0,0,0,6.22,6.23H305.92l-.46-.41Z" transform="translate(-34.51 -19.53)"/><path class="cls-3" d="M305.44,148.71l0,0,.46.41h0C305.76,149,305.59,148.87,305.44,148.71Z" transform="translate(-34.51 -19.53)"/><path class="cls-4" d="M318.41,140.85h0a10.19,10.19,0,0,0,.27-14.27l-6.75-7.15-9.28-9.83a10.2,10.2,0,0,0-14.62-.21l-.61.62a10.18,10.18,0,0,0,.06,14.47l16.63,16.37A10.2,10.2,0,0,0,318.41,140.85Z" transform="translate(-34.51 -19.53)"/><path class="cls-2" d="M343.38,87.48l-39.17,39.35a10,10,0,0,0,.08,14.19h0a10,10,0,0,0,14,0l39.84-38.72A10,10,0,0,0,358,87.92l-.67-.64A10,10,0,0,0,343.38,87.48Z" transform="translate(-34.51 -19.53)"/><rect class="cls-2" x="170.69" y="57.71" width="84.56" height="12.21" rx="6.11" ry="6.11"/><rect class="cls-2" x="170.43" y="80.61" width="54.02" height="12.21" rx="6.11" ry="6.11"/></svg>